<?xml version="1.0" encoding="utf-8"?>
<!-- Generator: Adobe Illustrator 18.1.0, SVG Export Plug-In . SVG Version: 6.00 Build 0)  -->
<svg version="1.1" id="Laag_1" xmlns="http://www.w3.org/2000/svg" xmlns:xlink="http://www.w3.org/1999/xlink" x="0px" y="0px"
	 viewBox="0 0 566.9 566.9" enable-background="new 0 0 566.9 566.9" xml:space="preserve">
<g>
	<path fill="#010202" d="M530.6,92.8c-109.9-5.8-219.8-5.6-329.6-0.1c-37.4-13.1-18-39.1-14.6-58c3.2-17.5,27.6-11,43.2-11.1
		c82-0.6,163.9-0.3,245.9-0.3c74.6,0,74.6,0.1,73.5,62.7C545.8,94.1,539.7,96.4,530.6,92.8z"/>
	<path fill="#010202" d="M540.9,91.1c13.8-51.4-10-68-71.6-64.2c-72.9,4.5-146.5,0.9-219.8,1.1c-69.3,0.2-72.8,5.1-48.6,64.7
		c0,117.3,0.3,234.7-0.4,352c-0.1,18.9,6.7,39.5-11,56.2c-21.5-15.8-19.4-36.5-16.6-57.4c1.2-126.2,4-252.4,2.5-378.6
		C175,27.5,187.7,15.7,232.2,17c92.6,2.7,185.4,0.9,278.1,0.8c21.7,0,43.3-1.6,43.1,25.5c-1.2,152-2,300.9-3.2,447.9
		c0,3.1-3.8,6.1-5.9,9.2c-21.7-17.7-15.9-37.9-7.4-58.3C540.2,325.2,532.6,208.1,540.9,91.1z"/>
	<path fill="#010202" d="M540.5,448.2c-4.2-1.3-8.5-2.5-12.7-3.8c0.9-117.2,1.9-234.4,2.8-351.6c3.5-0.4,6.9-1,10.3-1.7
		C540.8,210.2,540.6,329.2,540.5,448.2z"/>
	<path fill="#010202" d="M541.3,368.7c2.4,2.9,5.1-1.5,5.7,1.5c3,17.2,4.6,24.6,4,41.6c-2.2,67.8,6.4,84.4-16.7,111.7
		c-25.6,30.2-66.4,42.8-109.2,34.1c-31.7-6.4-51.7-23.6-60.1-50.1c-8.3-26.2-1.8-57.8,20.8-77.2c30.8-26.5,78.3-15.1,105.8,14.3
		c6.8,7.5,10.5,16,13.2,21.8c1.3,5.1,1.3,10.2,0.1,15.2c-2.5,8.9-2,11.6-8.1,19.3c-13.3,16.6-38.9,26.6-61.3,19.6
		c-18.5-5.8-31.9-18.2-29.6-35.4c1.9-14.5,7.1-22.3,23.5-25c13.1-2.2,21.4,0.6,24.5,11.2c1.9,6.4,2.5,15.2-8.2,12.9
		c-7.7-1.6-8.7-5.9-11.3,1.5c-1.9,5.5,1.6,9.5,7.7,11c8.7,2.2,14.4-1.3,18-7.9c6.8-12.5,1.6-27.2-11.9-33
		c-15.2-6.6-37.8-0.1-46.4,13.3c-13.1,20.6-0.9,46.4,24.7,55.6c34.5,12.4,93.2-4.7,96.8-29.3c2.6-17.6,3.8-40.5,4.3-59.5
		c0.8-15.5-1.5-44.6,0.5-58.7C534.3,335,534.3,360.1,541.3,368.7z"/>
	<path fill="#010202" d="M186.3,368.7c2.4,2.9,5.1-1.5,5.7,1.5c3,17.2,4.6,24.6,4,41.6c-2.2,67.8,14.4,79.8-11,107.9
		c-26.7,29.5-72.1,46.6-114.9,37.9c-31.7-6.4-51.7-23.6-60.1-50.1c-8.3-26.2-1.8-57.8,20.8-77.2c30.8-26.5,78.3-15.1,105.8,14.3
		c6.8,7.5,10.5,16,13.2,21.8c1.3,5.1,1.3,10.2,0.1,15.2c-2.5,8.9-2,11.6-8.1,19.3c-13.3,16.6-38.9,26.6-61.3,19.6
		c-18.5-5.8-31.9-18.2-29.6-35.4c1.9-14.5,7.1-22.3,23.5-25c13.1-2.2,21.4,0.6,24.5,11.2c1.9,6.4,2.5,15.2-8.2,12.9
		c-7.7-1.6-8.7-5.9-11.3,1.5c-1.9,5.5,1.6,9.5,7.7,11c8.7,2.2,14.4-1.3,18-7.9c6.8-12.5,1.6-27.2-11.9-33
		c-15.2-6.6-37.8-0.1-46.4,13.3c-13.1,20.6-0.9,46.4,24.7,55.6c34.5,12.4,93.2-4.7,96.8-29.3c2.6-17.6,3.8-40.5,4.3-59.5
		c0.8-15.5-1.5-44.6,0.5-58.7C179.4,335,179.4,360.1,186.3,368.7z"/>
</g>
</svg>
